<svg xmlns="http://www.w3.org/2000/svg" xmlns:xlink="http://www.w3.org/1999/xlink" width="500" zoomAndPan="magnify" viewBox="0 0 375 374.999991" height="500" preserveAspectRatio="xMidYMid meet" version="1.0"><defs><g/><clipPath id="id1"><path d="M 106 76.355469 L 253.957031 76.355469 L 253.957031 222 L 106 222 Z M 106 76.355469 " clip-rule="nonzero"/></clipPath></defs><g clip-path="url(#id1)"><path fill="rgb(27.059937%, 45.489502%, 19.219971%)" d="M 248.878906 165.644531 C 248.140625 180.605469 242.914062 194.757812 234.53125 204.476562 C 225.839844 214.554688 216.308594 218.816406 206.203125 217.144531 C 198.574219 215.882812 193.382812 211.550781 193.335938 211.511719 C 192.542969 210.832031 191.382812 210.832031 190.585938 211.511719 C 190.539062 211.554688 185.480469 215.808594 177.894531 217.113281 C 167.71875 218.867188 158.128906 214.613281 149.390625 204.476562 C 142.988281 197.050781 138.445312 187.152344 136.3125 176.128906 L 162.160156 202.050781 C 162.578125 202.464844 163.117188 202.671875 163.660156 202.671875 C 164.199219 202.671875 164.742188 202.464844 165.15625 202.050781 L 188.167969 178.980469 C 188.5625 178.582031 188.785156 178.042969 188.785156 177.480469 C 188.785156 176.910156 188.5625 176.375 188.167969 175.976562 L 143.699219 131.394531 C 143.980469 131.039062 144.261719 130.6875 144.539062 130.351562 C 149.429688 124.601562 155.300781 120.980469 162.082031 119.515625 C 162.246094 119.5 162.402344 119.46875 162.558594 119.410156 C 166.257812 118.671875 170.21875 118.566406 174.433594 119.09375 C 183.734375 120.261719 190.851562 124.226562 190.921875 124.269531 C 191.011719 124.316406 191.101562 124.359375 191.195312 124.394531 C 191.226562 124.410156 191.261719 124.417969 191.292969 124.429688 C 191.371094 124.453125 191.441406 124.476562 191.515625 124.492188 C 191.554688 124.496094 191.59375 124.507812 191.636719 124.511719 C 191.726562 124.527344 191.820312 124.539062 191.917969 124.539062 C 191.933594 124.539062 191.941406 124.542969 191.957031 124.542969 C 191.980469 124.542969 191.996094 124.539062 192.023438 124.539062 C 192.101562 124.539062 192.179688 124.527344 192.261719 124.519531 C 192.269531 124.519531 192.28125 124.519531 192.292969 124.519531 C 192.453125 124.492188 192.601562 124.449219 192.742188 124.390625 C 192.753906 124.386719 192.765625 124.378906 192.78125 124.375 C 192.84375 124.347656 192.90625 124.316406 192.976562 124.285156 C 192.984375 124.28125 192.992188 124.273438 193.003906 124.269531 C 193.070312 124.226562 200.1875 120.261719 209.488281 119.09375 C 221.667969 117.5625 231.730469 121.355469 239.378906 130.351562 C 246.035156 138.167969 249.582031 151.363281 248.878906 165.644531 Z M 112.769531 131.914062 L 129.78125 114.855469 C 129.949219 117.667969 130.851562 120.726562 132.414062 123.785156 L 122.667969 133.554688 C 121.84375 134.382812 121.84375 135.726562 122.667969 136.554688 C 123.082031 136.96875 123.621094 137.175781 124.167969 137.175781 C 124.714844 137.175781 125.253906 136.96875 125.667969 136.554688 L 134.667969 127.527344 C 135.871094 129.265625 137.285156 130.96875 138.90625 132.59375 L 139.394531 133.082031 C 139.394531 133.082031 139.398438 133.082031 139.398438 133.085938 L 141.617188 135.3125 L 132.621094 144.332031 C 131.789062 145.160156 131.789062 146.503906 132.621094 147.339844 C 133.03125 147.753906 133.574219 147.960938 134.117188 147.960938 C 134.660156 147.960938 135.199219 147.753906 135.617188 147.339844 L 144.609375 138.316406 L 151.96875 145.691406 L 142.96875 154.710938 C 142.140625 155.539062 142.140625 156.882812 142.96875 157.710938 C 143.386719 158.132812 143.925781 158.339844 144.464844 158.339844 C 145.011719 158.339844 145.550781 158.132812 145.964844 157.710938 L 154.960938 148.691406 L 162.320312 156.066406 L 153.320312 165.085938 C 152.496094 165.921875 152.496094 167.265625 153.320312 168.09375 C 153.734375 168.507812 154.273438 168.714844 154.820312 168.714844 C 155.359375 168.714844 155.898438 168.507812 156.320312 168.09375 L 165.316406 159.070312 L 172.671875 166.445312 L 163.675781 175.46875 C 162.84375 176.300781 162.84375 177.644531 163.675781 178.472656 C 164.085938 178.886719 164.628906 179.09375 165.171875 179.09375 C 165.714844 179.09375 166.253906 178.886719 166.667969 178.472656 L 175.667969 169.445312 L 183.675781 177.480469 L 163.660156 197.542969 L 118.886719 152.664062 C 111.628906 145.375 108.820312 135.871094 112.769531 131.914062 Z M 135.769531 108.851562 L 135.78125 108.84375 C 135.78125 108.839844 135.785156 108.839844 135.785156 108.839844 C 139.738281 104.882812 149.210938 107.699219 156.472656 114.976562 L 157.804688 116.316406 C 151.519531 118.359375 145.960938 122.140625 141.320312 127.597656 C 141.121094 127.835938 140.90625 128.082031 140.710938 128.332031 C 134.347656 121.253906 132.058594 112.59375 135.769531 108.851562 Z M 167.226562 101.429688 C 159.230469 96.015625 156.074219 85.578125 155.070312 81.21875 C 156.6875 80.960938 159.171875 80.667969 162.074219 80.667969 C 166.582031 80.667969 173.058594 81.410156 178.3125 84.964844 C 186.304688 90.375 189.460938 100.804688 190.464844 105.171875 C 188.839844 105.429688 186.351562 105.726562 183.460938 105.726562 C 178.953125 105.726562 172.480469 104.980469 167.226562 101.429688 Z M 242.601562 127.597656 C 234.058594 117.546875 222.371094 113.152344 208.816406 114.898438 C 202.355469 115.730469 196.953125 117.75 193.828125 119.140625 C 193.738281 116.1875 193.929688 111.324219 195.570312 105.972656 C 199.109375 94.414062 207.394531 86.355469 220.207031 82.007812 C 221.308594 81.628906 221.90625 80.425781 221.53125 79.3125 C 221.15625 78.199219 219.953125 77.605469 218.84375 77.980469 C 204.292969 82.925781 197.015625 91.851562 193.382812 99.820312 C 191.523438 94.160156 187.800781 86.257812 180.679688 81.441406 C 175.75 78.109375 169.488281 76.414062 162.074219 76.414062 C 156.433594 76.414062 152.246094 77.429688 152.070312 77.472656 C 151.011719 77.738281 150.324219 78.761719 150.476562 79.839844 C 150.578125 80.535156 153.066406 96.972656 164.859375 104.949219 C 169.785156 108.28125 176.046875 109.96875 183.460938 109.96875 C 186.203125 109.96875 188.597656 109.730469 190.355469 109.480469 C 189.65625 113.242188 189.523438 116.542969 189.582031 118.917969 C 186.394531 117.535156 181.230469 115.683594 175.109375 114.898438 C 170.726562 114.335938 166.550781 114.414062 162.605469 115.117188 L 159.46875 111.976562 C 150.277344 102.753906 138.550781 100.058594 132.785156 105.839844 L 109.773438 128.910156 C 104.011719 134.691406 106.695312 146.441406 115.894531 155.664062 L 131.25 171.054688 C 132.882812 185.125 138.167969 197.957031 146.1875 207.253906 C 158.367188 221.382812 170.542969 222.6875 178.609375 221.304688 C 184.957031 220.210938 189.734375 217.34375 191.964844 215.78125 C 194.183594 217.34375 198.964844 220.210938 205.316406 221.304688 C 206.84375 221.5625 208.523438 221.734375 210.328125 221.734375 C 218.003906 221.734375 227.871094 218.695312 237.734375 207.253906 C 246.722656 196.832031 252.324219 181.742188 253.109375 165.851562 C 253.878906 150.296875 250.046875 136.347656 242.601562 127.597656 " fill-opacity="1" fill-rule="nonzero"/></g><path fill="rgb(27.059937%, 45.489502%, 19.219971%)" d="M 228.257812 139.234375 C 228.675781 139.730469 229.269531 139.984375 229.867188 139.984375 C 230.351562 139.984375 230.839844 139.816406 231.238281 139.476562 C 232.132812 138.714844 232.238281 137.371094 231.476562 136.480469 C 228.101562 132.515625 224.109375 129.652344 219.601562 127.976562 C 218.507812 127.570312 217.289062 128.128906 216.878906 129.226562 C 216.472656 130.328125 217.035156 131.546875 218.128906 131.957031 C 221.949219 133.378906 225.355469 135.828125 228.257812 139.234375 " fill-opacity="1" fill-rule="nonzero"/><path fill="rgb(27.059937%, 45.489502%, 19.219971%)" d="M 235.226562 147.503906 C 234.101562 147.828125 233.453125 149.003906 233.78125 150.128906 C 237.535156 163.1875 235.554688 183.101562 224.511719 195.914062 C 223.742188 196.800781 223.84375 198.144531 224.730469 198.90625 C 225.125 199.253906 225.617188 199.421875 226.109375 199.421875 C 226.703125 199.421875 227.296875 199.171875 227.714844 198.691406 C 233.179688 192.351562 237 184.011719 238.757812 174.5625 C 240.394531 165.773438 240.070312 156.675781 237.847656 148.953125 C 237.523438 147.828125 236.351562 147.171875 235.226562 147.503906 " fill-opacity="1" fill-rule="nonzero"/><g fill="rgb(27.059937%, 45.489502%, 19.219971%)" fill-opacity="1"><g transform="translate(122.560889, 261.972463)"><g><path d="M 2.75 0 L 5.980469 0 L 5.980469 -9.820312 L 14.9375 -9.820312 L 14.9375 -12.828125 L 5.980469 -12.828125 L 5.980469 -19.449219 L 16.089844 -19.449219 L 16.089844 -22.582031 L 2.75 -22.582031 Z M 2.75 0 "/></g></g></g><g fill="rgb(27.059937%, 45.489502%, 19.219971%)" fill-opacity="1"><g transform="translate(139.350664, 261.972463)"><g><path d="M 2.207031 -21.75 C 2.207031 -20.535156 3.199219 -19.929688 4.160156 -19.929688 C 5.148438 -19.929688 6.109375 -20.535156 6.109375 -21.75 C 6.109375 -22.96875 5.148438 -23.542969 4.191406 -23.542969 C 3.199219 -23.542969 2.207031 -22.933594 2.207031 -21.75 Z M 2.589844 -17.496094 L 5.726562 -17.496094 L 5.726562 0 L 2.589844 0 Z M 2.589844 -17.496094 "/></g></g></g><g fill="rgb(27.059937%, 45.489502%, 19.219971%)" fill-opacity="1"><g transform="translate(147.953428, 261.972463)"><g><path d="M 6.492188 -17.304688 L 6.492188 -21.144531 L 3.359375 -20.535156 L 3.359375 -17.304688 L 0.769531 -17.304688 L 0.769531 -14.808594 L 3.359375 -14.808594 L 3.359375 -5.085938 C 3.359375 -1.054688 5.566406 0.0976562 8.957031 0.0976562 C 9.40625 0.0976562 9.882812 0.0625 10.394531 0.03125 L 10.394531 -2.589844 C 9.917969 -2.558594 9.46875 -2.527344 9.085938 -2.527344 C 7.515625 -2.527344 6.492188 -3.007812 6.492188 -5.054688 L 6.492188 -14.808594 L 10.300781 -14.808594 L 10.300781 -17.304688 Z M 6.492188 -17.304688 "/></g></g></g><g fill="rgb(27.059937%, 45.489502%, 19.219971%)" fill-opacity="1"><g transform="translate(158.947606, 261.972463)"><g><path d="M 12.699219 -15.320312 L 18.199219 -15.320312 C 18.199219 -20.472656 13.882812 -22.710938 9.882812 -22.710938 C 5.117188 -22.710938 1.085938 -19.769531 1.34375 -14.84375 L 1.34375 -14.875 C 1.757812 -9.722656 6.046875 -8.925781 9.660156 -8.574219 C 10.492188 -8.476562 13.050781 -8.414062 13.050781 -6.8125 C 13.050781 -5.535156 11.613281 -5.023438 9.820312 -5.023438 C 8.574219 -5.023438 6.71875 -5.4375 6.71875 -7.644531 L 1.183594 -7.644531 C 1.183594 -1.953125 6.140625 0.289062 9.789062 0.289062 C 14.042969 0.289062 18.585938 -2.398438 18.585938 -7.070312 C 18.585938 -7.550781 18.519531 -8.125 18.425781 -8.636719 C 17.464844 -12.667969 13.464844 -13.5 10.300781 -13.914062 C 9.5625 -13.980469 6.910156 -14.011719 6.910156 -15.675781 C 6.910156 -16.890625 8.09375 -17.625 9.789062 -17.625 C 11.484375 -17.625 12.699219 -16.824219 12.699219 -15.320312 Z M 12.699219 -15.320312 "/></g></g></g><g fill="rgb(27.059937%, 45.489502%, 19.219971%)" fill-opacity="1"><g transform="translate(178.967406, 261.972463)"><g><path d="M 17.847656 -7.355469 L 12.859375 -7.355469 C 12.28125 -5.4375 10.714844 -4.542969 9.179688 -4.542969 C 7.261719 -4.542969 5.34375 -5.949219 5.34375 -8.667969 C 5.34375 -11.386719 7.261719 -12.796875 9.179688 -12.796875 C 10.714844 -12.796875 12.28125 -11.867188 12.859375 -9.949219 L 17.847656 -9.949219 C 17.175781 -15.035156 13.179688 -17.527344 9.179688 -17.527344 C 4.796875 -17.527344 0.414062 -14.523438 0.414062 -8.667969 C 0.414062 -2.816406 4.796875 0.191406 9.179688 0.191406 C 13.179688 0.191406 17.175781 -2.304688 17.847656 -7.355469 Z M 17.847656 -7.355469 "/></g></g></g><g fill="rgb(27.059937%, 45.489502%, 19.219971%)" fill-opacity="1"><g transform="translate(198.603441, 261.972463)"><g><path d="M 18.585938 -8.636719 C 18.585938 -14.808594 13.980469 -17.882812 9.371094 -17.882812 C 4.734375 -17.882812 0.128906 -14.808594 0.128906 -8.636719 C 0.128906 -2.496094 4.765625 0.574219 9.371094 0.574219 C 13.980469 0.574219 18.585938 -2.496094 18.585938 -8.636719 Z M 5.183594 -8.636719 C 5.183594 -11.578125 7.261719 -13.050781 9.371094 -13.050781 C 11.675781 -13.050781 13.53125 -11.578125 13.53125 -8.636719 C 13.53125 -5.726562 11.453125 -4.285156 9.371094 -4.285156 C 7.261719 -4.285156 5.183594 -5.726562 5.183594 -8.636719 Z M 5.183594 -8.636719 "/></g></g></g><g fill="rgb(27.059937%, 45.489502%, 19.219971%)" fill-opacity="1"><g transform="translate(218.847111, 261.972463)"><g><path d="M 5.695312 -16.152344 L 5.5 -17.304688 L 0.960938 -17.304688 L 0.960938 0 L 5.980469 0 L 5.980469 -9.597656 C 5.980469 -11.929688 7.835938 -12.890625 9.660156 -12.921875 C 10.234375 -12.921875 10.84375 -12.828125 11.355469 -12.667969 L 11.417969 -17.402344 C 10.746094 -17.5625 10.074219 -17.65625 9.46875 -17.65625 C 8.0625 -17.65625 6.8125 -17.210938 5.695312 -16.152344 Z M 5.695312 -16.152344 "/></g></g></g><g fill="rgb(27.059937%, 45.489502%, 19.219971%)" fill-opacity="1"><g transform="translate(231.959121, 261.972463)"><g><path d="M 18.296875 -8.699219 C 18.296875 -14.617188 13.820312 -17.5625 9.371094 -17.5625 C 4.863281 -17.5625 0.414062 -14.617188 0.414062 -8.699219 C 0.414062 -2.78125 4.863281 0.191406 9.339844 0.191406 C 12.921875 0.191406 16.472656 -1.695312 17.785156 -5.46875 L 12.316406 -5.46875 C 11.578125 -4.671875 10.523438 -4.285156 9.40625 -4.285156 C 7.867188 -4.316406 6.300781 -5.117188 5.695312 -6.71875 L 18.105469 -6.71875 C 18.234375 -7.355469 18.296875 -7.996094 18.296875 -8.699219 Z M 12.796875 -10.652344 L 5.886719 -10.652344 C 6.398438 -12.347656 7.773438 -13.179688 9.277344 -13.179688 C 10.90625 -13.179688 12.316406 -12.378906 12.796875 -10.652344 Z M 12.796875 -10.652344 "/></g></g></g></svg>