<svg width="20" height="20" viewBox="0 0 20 20" fill="none" xmlns="http://www.w3.org/2000/svg">
<path d="M17.5 1.25C17.8315 1.25 18.1495 1.3817 18.3839 1.61612C18.6183 1.85054 18.75 2.16848 18.75 2.5V17.5C18.75 17.8315 18.6183 18.1495 18.3839 18.3839C18.1495 18.6183 17.8315 18.75 17.5 18.75H2.5C2.16848 18.75 1.85054 18.6183 1.61612 18.3839C1.3817 18.1495 1.25 17.8315 1.25 17.5V2.5C1.25 2.16848 1.3817 1.85054 1.61612 1.61612C1.85054 1.3817 2.16848 1.25 2.5 1.25H17.5ZM2.5 0C1.83696 0 1.20107 0.263392 0.732233 0.732233C0.263392 1.20107 0 1.83696 0 2.5L0 17.5C0 18.163 0.263392 18.7989 0.732233 19.2678C1.20107 19.7366 1.83696 20 2.5 20H17.5C18.163 20 18.7989 19.7366 19.2678 19.2678C19.7366 18.7989 20 18.163 20 17.5V2.5C20 1.83696 19.7366 1.20107 19.2678 0.732233C18.7989 0.263392 18.163 0 17.5 0L2.5 0Z" fill="#FF0000"/>
<path d="M5.80746 5.80752C5.86551 5.74931 5.93448 5.70314 6.01042 5.67163C6.08635 5.64012 6.16775 5.6239 6.24996 5.6239C6.33217 5.6239 6.41357 5.64012 6.4895 5.67163C6.56543 5.70314 6.6344 5.74931 6.69246 5.80752L9.99996 9.11627L13.3075 5.80752C13.3656 5.74941 13.4346 5.70331 13.5105 5.67186C13.5864 5.64042 13.6678 5.62423 13.75 5.62423C13.8321 5.62423 13.9135 5.64042 13.9894 5.67186C14.0654 5.70331 14.1343 5.74941 14.1925 5.80752C14.2506 5.86563 14.2967 5.93461 14.3281 6.01054C14.3596 6.08646 14.3757 6.16784 14.3757 6.25002C14.3757 6.3322 14.3596 6.41357 14.3281 6.4895C14.2967 6.56542 14.2506 6.63441 14.1925 6.69252L10.8837 10L14.1925 13.3075C14.2506 13.3656 14.2967 13.4346 14.3281 13.5105C14.3596 13.5865 14.3757 13.6678 14.3757 13.75C14.3757 13.8322 14.3596 13.9136 14.3281 13.9895C14.2967 14.0654 14.2506 14.1344 14.1925 14.1925C14.1343 14.2506 14.0654 14.2967 13.9894 14.3282C13.9135 14.3596 13.8321 14.3758 13.75 14.3758C13.6678 14.3758 13.5864 14.3596 13.5105 14.3282C13.4346 14.2967 13.3656 14.2506 13.3075 14.1925L9.99996 10.8838L6.69246 14.1925C6.63435 14.2506 6.56536 14.2967 6.48944 14.3282C6.41351 14.3596 6.33214 14.3758 6.24996 14.3758C6.16778 14.3758 6.0864 14.3596 6.01048 14.3282C5.93455 14.2967 5.86557 14.2506 5.80746 14.1925C5.74935 14.1344 5.70325 14.0654 5.6718 13.9895C5.64035 13.9136 5.62417 13.8322 5.62417 13.75C5.62417 13.6678 5.64035 13.5865 5.6718 13.5105C5.70325 13.4346 5.74935 13.3656 5.80746 13.3075L9.11621 10L5.80746 6.69252C5.74925 6.63446 5.70307 6.56549 5.67157 6.48956C5.64006 6.41363 5.62384 6.33223 5.62384 6.25002C5.62384 6.16781 5.64006 6.08641 5.67157 6.01048C5.70307 5.93454 5.74925 5.86558 5.80746 5.80752Z" fill="#FF0000"/>
</svg>
