<svg width="20" height="20" viewBox="0 0 20 20" fill="none" xmlns="http://www.w3.org/2000/svg">
<path d="M16.9444 0C17.7548 0 18.532 0.321924 19.105 0.894952C19.6781 1.46798 20 2.24517 20 3.05556V16.9444C20 17.7548 19.6781 18.532 19.105 19.105C18.532 19.6781 17.7548 20 16.9444 20H3.05556C2.24517 20 1.46798 19.6781 0.894952 19.105C0.321924 18.532 0 17.7548 0 16.9444V3.05556C0 2.24517 0.321924 1.46798 0.894952 0.894952C1.46798 0.321924 2.24517 0 3.05556 0H16.9444ZM16.9444 1.66667H3.05556C2.28889 1.66667 1.66667 2.28889 1.66667 3.05556V16.9444C1.66667 17.7111 2.28889 18.3333 3.05556 18.3333H16.9444C17.7111 18.3333 18.3333 17.7111 18.3333 16.9444V3.05556C18.3333 2.28889 17.7111 1.66667 16.9444 1.66667ZM7.77778 12.7111L14.9667 5.52222C15.1156 5.37449 15.3147 5.28834 15.5243 5.28096C15.7339 5.27358 15.9386 5.34551 16.0975 5.4824C16.2564 5.61929 16.3579 5.81107 16.3816 6.01947C16.4053 6.22786 16.3496 6.43755 16.2256 6.60667L16.1444 6.7L8.36667 14.4778C8.22557 14.6189 8.03851 14.7047 7.8395 14.7196C7.64049 14.7345 7.44274 14.6775 7.28222 14.5589L7.18889 14.4778L3.85556 11.1444C3.70783 10.9956 3.62167 10.7964 3.61429 10.5868C3.60691 10.3772 3.67884 10.1725 3.81573 10.0136C3.95262 9.8547 4.14441 9.75325 4.3528 9.72952C4.5612 9.70578 4.77088 9.7615 4.94 9.88556L5.03333 9.96667L7.77778 12.7111L14.9667 5.52222L7.77778 12.7111Z" fill="#7DD956"/>
</svg>
